<svg xmlns="http://www.w3.org/2000/svg" width="256" height="256"><path fill-opacity=".016" d="M0 128.004v128.004l128.25-.254 128.25-.254.254-127.75L257.008 0H0v128.004m.485.496c0 70.4.119 99.053.265 63.672.146-35.38.146-92.98 0-128C.604 29.153.485 58.1.485 128.5" fill="#1976D2" fill-rule="evenodd"/><path fill-opacity=".036" d="M59.269 83.693c.973.254 2.323.237 3-.037.677-.274-.119-.481-1.769-.461-1.65.02-2.204.244-1.231.498m103.165.2c.304.492-.545 1.169-1.886 1.506-2.643.663-12.048 8.349-12.048 9.845 0 .505-.817 1.515-1.817 2.246-.999.73-1.72 1.481-1.603 1.669.488.781-1.286 4.841-2.116 4.841-.496 0-.642.675-.326 1.5.317.825.078 1.5-.531 1.5s-1.107.753-1.107 1.674c0 1.422-.349 1.347-2.314-.5-2.726-2.56-5.919-2.798-8.115-.603-1.202 1.202-1.571 3.746-1.571 10.819 0 9.64-1.891 18.358-4.561 21.028-.831.831-1.478 1.768-1.439 2.082.039.314-.698 1.341-1.638 2.281-1.613 1.613-1.672 1.519-1.036-1.66.371-1.854.674-4.016.674-4.805 0-.789.369-1.206.819-.928.451.279.615-.884.366-2.583-.291-1.979-.08-2.858.586-2.447.686.425.85-.766.482-3.511-.375-2.797-.211-3.939.504-3.497.707.437 1.008-1.261.902-5.097-.121-4.377-.686-6.337-2.363-8.193l-2.204-2.44-6.046 6.413c-3.325 3.528-6.046 6.888-6.046 7.467 0 1.265-11.651 12.5-12.963 12.5-2.113 0-1.993-2.196.287-5.244 1.339-1.791 3.021-4.92 3.737-6.953.716-2.033 1.74-3.426 2.275-3.095.535.33.706.169.38-.359-.326-.528-.219-2.619.238-4.647.458-2.028.477-3.469.044-3.201-.434.268-1.046-.185-1.362-1.007-.315-.822-1.502-1.494-2.637-1.494-2.24 0-9.098 2.624-9.964 3.812-1.041 1.429-6.216 4.34-6.756 3.8-.662-.662 1.692-6.612 2.615-6.612.775 0 3.705-5.567 4.605-8.75.35-1.237 1.028-2.25 1.508-2.25 1.29 0-2.001-9.297-3.799-10.733-1.021-.815-1.942-.903-2.718-.259-.646.536-1.542.641-1.992.233-.45-.407-.495-.178-.099.509.395.688.242 1.25-.34 1.25-.582 0-1.059.675-1.059 1.5s-.441 1.5-.981 1.5c-.539 0-1.278 1.237-1.642 2.75-.98 4.077-4.266 10.25-5.456 10.25-.572 0-.761.45-.421 1s.212 1-.284 1-1.962 2.063-3.259 4.583c-1.296 2.521-3.267 5.221-4.38 6-1.112.78-1.648 1.417-1.192 1.417.457 0-1.69 2.722-4.77 6.05-4.604 4.972-5.38 6.3-4.358 7.456 1.041 1.179 1.998.603 5.895-3.549 2.559-2.727 4.933-4.957 5.276-4.957.855 0-2.164 5.831-4.944 9.549-2.934 3.924-4.531 9.615-3.311 11.796 1.018 1.818 4.827 2.289 4.827.596 0-.582.45-.781 1-.441s1 .115 1-.5.337-.965.75-.778c.895.405 8.18-6.959 7.528-7.611-.248-.248.713-1.214 2.135-2.146 1.423-.932 2.587-2.24 2.587-2.906 0-1.644 4.287-5.563 6.064-5.544 1.124.012 1.157.192.152.83-.708.449-.996 1.564-.643 2.485.373.972.153 1.67-.525 1.67-.641 0-.907.419-.591.931.317.512.135 1.203-.404 1.536-.538.333-1.428 2.232-1.977 4.221-.865 3.13-.702 3.964 1.213 6.214 2.269 2.666 7.711 4.155 7.711 2.111 0-.622.45-.853 1-.513.55.34 1 .115 1-.5s.45-.84 1-.5c.55.34 1 .178 1-.359 0-.538 1.463-1.888 3.25-3.001 1.788-1.113 5.95-4.743 9.25-8.066 3.3-3.324 6.506-6.05 7.125-6.058 1.267-.018 1.566 4.945.391 6.484-.796 1.042-2.505 10.386-2.162 11.824.107.454-.266.54-.829.191-.564-.348-1.025-.104-1.025.543 0 .683-.838.956-2 .652-1.1-.287-2-.151-2 .304 0 .455-1.463 1.142-3.25 1.527-3.881.836-8.962 3.303-9.985 4.849-.404.61-.741.685-.75.166-.008-.52-1.071.487-2.362 2.236-1.29 1.75-2.664 2.863-3.053 2.475-.388-.388-.409.068-.046 1.013.363.946.258 1.72-.233 1.72s-.892.9-.892 2 .401 2 .892 2 .596.774.233 1.72c-.363.945-.373 1.433-.024 1.083.35-.35 1.499.226 2.553 1.28 3.163 3.163 11.537 1.973 16.503-2.345 1.229-1.069 2.416-1.785 2.636-1.591.22.194 1.88-1.333 3.69-3.394 1.809-2.06 3.625-3.539 4.036-3.285.935.578 6.283-4.904 5.524-5.663-.306-.306.925-1.744 2.736-3.196 1.81-1.451 3.807-3.055 4.435-3.564.629-.509 1.417-.652 1.75-.318.334.333.607.055.607-.619s.45-.948 1-.608c.55.34 1 .159 1-.402s2.215-2.47 4.923-4.242c2.708-1.773 5.398-4.266 5.979-5.54.58-1.274 1.541-2.316 2.136-2.316.594 0 .802-.45.462-1s-.141-1 .441-1c1.647 0 1.262 1.147-2.006 5.971-2.236 3.299-2.952 5.395-2.732 8 .292 3.468.372 3.527 4.641 3.436 2.557-.055 4.711-.672 5.235-1.5.49-.774.905-.957.923-.407.017.55.968-.463 2.113-2.25s2.514-3.25 3.042-3.25c.529 0 .683-.45.343-1-.371-.601.926-1 3.25-1 2.127 0 4.716-.62 5.752-1.378 1.809-1.322 1.813-1.45.101-3.162-1.489-1.489-1.928-1.552-2.652-.381-.629 1.018-1.169 1.103-1.963.309-1.352-1.352 1.803-8.635 3.331-7.691.545.337.678.107.296-.511-.381-.617.72-2.599 2.447-4.404 1.727-1.805 3.756-4.471 4.509-5.924 1.368-2.64 9.159-9.461 9.928-8.692.826.826-2.641 10.487-5.502 15.334-1.624 2.75-4.161 7.588-5.638 10.75-1.478 3.162-3.049 5.75-3.491 5.75-.443 0-.518.749-.167 1.664.427 1.111.254 1.426-.52.948-.756-.468-.952-.178-.563.836.328.854.173 1.552-.344 1.552-.517 0-.859 1.012-.76 2.25.159 1.982.717 2.244 4.673 2.197 3.865-.045 5.055-.61 8.518-4.038 2.214-2.192 4.342-4.981 4.728-6.197.386-1.217 1.107-2.212 1.603-2.212s.614-.749.263-1.664c-.427-1.111-.254-1.426.52-.948.755.467.952.179.566-.828-.349-.908.065-1.796 1.006-2.156.878-.338 1.378-.969 1.109-1.404-.269-.435.184-1.048 1.006-1.364.822-.315 1.494-1.138 1.494-1.828 0-1.431 11.99-13.152 12.713-12.428.692.692-3.851 14.615-5.214 15.978-.638.638-.991 1.666-.785 2.285.207.619-.352 1.852-1.241 2.741-.889.889-1.269 1.616-.844 1.616.424 0 .231.54-.429 1.2-3.629 3.629.495 10.8 6.21 10.8 1.975 0 3.59-.477 3.59-1.059s.45-.781 1-.441 1 .066 1-.608c0-.674.266-.959.591-.634.325.325 3.363-2.065 6.75-5.312 6.412-6.145 9.298-7.499 8.363-3.922-.98 3.747 1.123 8.369 4.922 10.82 2.985 1.926 4.413 2.227 8.004 1.689 2.403-.361 4.37-1.126 4.37-1.701 0-.575.698-.778 1.552-.45.854.327 1.336.246 1.072-.181s1.741-2.024 4.454-3.55c2.714-1.525 6.169-4.327 7.678-6.226l2.744-3.452.632 2.764c.422 1.845.647.77.679-3.237.028-3.411-.262-5.213-.67-4.176-.396 1.003-1.039 1.791-1.43 1.75-1.726-.18-2.381.144-5.211 2.572-1.65 1.415-2.368 2.23-1.595 1.809.938-.511 1.164-.376.682.405-1.307 2.114-8.512 5.177-11.621 4.941-2.436-.186-2.99-.641-2.757-2.267.16-1.119.966-2.034 1.791-2.034s1.725-.249 2-.553c.275-.304 2.133-1.544 4.129-2.756 4.48-2.721 11.871-10.609 11.871-12.669 0-.837.375-1.522.833-1.522.459 0 .834-.655.834-1.456 0-.801-.375-1.224-.834-.941-.458.283-.833-.187-.833-1.044 0-2.539-3.777-5.559-6.953-5.559-3.615 0-7.677 1.766-10.885 4.731-1.328 1.227-2.877 1.945-3.442 1.596-.593-.366-.726-.146-.315.518.392.635.349 1.174-.096 1.197-.445.023-2.609 1.665-4.809 3.651-2.2 1.985-3.325 3.249-2.5 2.808.825-.441-.051.841-1.946 2.849-1.896 2.007-3.83 3.65-4.298 3.65-.469 0-1.992 1.238-3.385 2.75-1.393 1.512-2.238 2.075-1.878 1.25.361-.825-.316-.262-1.502 1.25-2.325 2.963-3.991 3.556-3.991 1.42 0-2.427 4.616-12.721 5.367-11.969.406.406.48.064.164-.759-.316-.823 1.236-4.497 3.447-8.165 4.183-6.935 4.967-11.102 2.678-14.233-1.094-1.495-2.239-1.738-6.124-1.3-2.629.296-5.167 1.15-5.64 1.897-.474.747-.868 1.044-.877.66-.008-.384-1.702.851-3.765 2.745-2.062 1.895-4.26 3.447-4.883 3.449-.624.003-1.381.95-1.683 2.106-.362 1.382-.983 1.832-1.817 1.317-.967-.598-.982-.88-.062-1.186.664-.222.953-.814.642-1.317-.311-.503-.013-.915.661-.915s.929-.296.567-.658c-.362-.362-.258-1.149.23-1.75 1.465-1.803 2.958-8.401 2.391-10.568-.291-1.113-1.339-2.024-2.329-2.024-.99 0-2.029-.562-2.308-1.25-.402-.993-.692-.987-1.408.027-.496.702-2.287 1.377-3.979 1.5-1.692.122-2.928.466-2.746.762.183.297-1.602 1.566-3.965 2.819-2.363 1.254-4.903 3.412-5.643 4.795-1.61 3.009-7.264 7.412-6.304 4.91.33-.86.889-1.563 1.243-1.564.354 0 .714-1.224.801-2.719.087-1.495.584-2.861 1.105-3.034.52-.174.734-1.425.475-2.781-.273-1.43-.002-2.465.645-2.465.615 0 1.117-1.377 1.117-3.059 0-2.062-.377-2.826-1.158-2.344-.79.489-.981.043-.602-1.406.305-1.168.264-2.067-.093-1.998-1.41.271-4.103-1.456-3.582-2.298.304-.492-1.525-.895-4.065-.895-2.54 0-4.37.402-4.066.893m-103.446 1.06c-6.038.62-15.34 4.19-16.716 6.415-.341.553-.001.604.823.125 1.144-.664-2.082 3.607-4.152 5.498-.909.831-2.827 6.317-3.15 9.009-.62 5.176-8.126 1.402-10.36-5.209-1.363-4.036-3.805-5.681-6.183-4.166-1.908 1.215-1.843 5.363.103 6.61.631.404.782.741.336.75-.446.008 1.354 1.825 4 4.038 6.911 5.778 6.739 5.668 8.083 5.22.675-.225 1.228.104 1.228.733 0 .628.45.864 1 .524.631-.39 1 2.009 1 6.5 0 3.915-.356 6.898-.791 6.629-.435-.269-.604 1.116-.375 3.078.245 2.096.025 3.324-.533 2.979-.522-.323-.916.358-.875 1.513.093 2.634-7.266 6.801-12.012 6.801-6.029 0-8.074-5.374-3.836-10.079 3.714-4.123-.094-10.921-6.117-10.921-1.904 0-3.461.477-3.461 1.059s-.382.823-.849.534c-.467-.289-1.435.57-2.151 1.907-.716 1.337-1.583 2.258-1.927 2.045-.344-.213-.738 2.39-.875 5.784-.207 5.112.179 6.858 2.245 10.171 1.372 2.2 2.509 3.63 2.526 3.179.017-.452.699-.153 1.516.664 3.456 3.455 17.963 4.281 25.515 1.453 1.375-.515 2.602-.917 2.726-.892.125.025 1.412-1.054 2.862-2.398 1.449-1.343 3.475-2.709 4.502-3.034 1.026-.326 2.886-2.816 4.132-5.532 1.247-2.717 2.528-4.94 2.849-4.94.32 0 .375-1.414.121-3.142-.288-1.962-.082-2.908.549-2.518.648.4.83-.963.51-3.805-.562-4.988 1.496-8.23 4.494-7.079.932.357 1.379.335.994-.05-.384-.385 1.498-1.717 4.183-2.961 2.936-1.361 5.852-3.691 7.318-5.848 1.341-1.973 2.759-3.265 3.152-2.872.392.393.417-.06.054-1.005-.363-.946-.274-1.72.197-1.72.471 0 .857-1.8.857-4s-.386-4-.857-4-.589-.698-.261-1.552c.327-.854.263-1.375-.143-1.159-1.017.542-4.226-2.969-3.436-3.759.35-.349-.212-.31-1.248.087-1.31.503-1.663.367-1.16-.447.398-.644.584-1.106.414-1.028-.17.078-3.239.443-6.821.811M54.5 92c-.995 1.1-1.403 2.014-.905 2.03.498.017.08.511-.929 1.097-1.331.774-1.663 1.748-1.21 3.554.402 1.601.254 2.258-.416 1.844-.667-.412-1.04 1.141-1.04 4.327 0 4.195.273 4.919 1.75 4.636.962-.184 2.311-.369 2.998-.411 1.362-.084 9.159-7.077 7.889-7.077-.429 0-.073-.707.792-1.571 1.802-1.803 2.046-5.673.536-8.495-1.414-2.641-7.05-2.602-9.465.066m98.711 4.757c-2.657 2.893-4.702 6.308-5.373 8.974-.596 2.367-1.436 4.521-1.867 4.787-.431.266-.548 1.384-.26 2.483.292 1.117.03 1.999-.594 1.999-.615 0-1.117 1.575-1.117 3.5s.47 3.5 1.044 3.5c.574 0 .911.741.75 1.646-.579 3.241 2.04 2.388 3.168-1.032.634-1.919 2.055-4.638 3.16-6.042 1.104-1.404 1.684-3.077 1.288-3.717-.422-.683-.285-.896.331-.515 1.188.734 2.564-2.037 1.703-3.43-.309-.501-.118-.91.425-.91 1.246 0 5.131-10.249 5.131-13.538 0-3.844-2.949-2.975-7.789 2.295m89.889 22.812c-1.68 1.414-2.993 2.876-2.918 3.25.074.375-.217 1.488-.647 2.474-1.349 3.092.119 2.95 3.91-.379 2.129-1.869 3.431-3.796 3.117-4.614-.297-.773-.095-1.129.449-.793.544.336.989-.091.989-.948 0-2.224-1.399-1.936-4.9 1.01m-105.027 3.681c-.733 2.612-1.751 4.75-2.262 4.75-.511 0-.651.45-.311 1s.115 1-.5 1-.84.45-.5 1c.34.55.151 1-.421 1-.571 0-1.968 1.822-3.104 4.049l-2.066 4.049 3.116-1.611c1.714-.886 4.017-3.138 5.118-5.005 1.101-1.866 2.893-3.676 3.982-4.022 1.444-.458 1.701-.965.948-1.872-.568-.685-1.401-3.009-1.85-5.166l-.818-3.922-1.332 4.75m-35.413 29.144c-2.112.608-3.476 1.467-3.03 1.909.445.441.084.525-.801.185-2.063-.792-8.628 4.861-9.45 8.136-.333 1.328-.05 3.067.632 3.889 1.373 1.655 4.989 2.031 4.989.518 0-.532.583-.745 1.295-.471 1.316.505 6.369-4.438 5.94-5.81-.129-.412.238-.75.816-.75 1.118 0 4.261-6.662 3.751-7.949-.166-.419-2.03-.265-4.142.343" fill="#1976D2" fill-rule="evenodd"/><path fill-opacity=".169" d="M163.849 83.885c.943.598.23 1.065-2.364 1.552-7.039 1.32-16.301 12.978-19.53 24.58l-1.247 4.483-.893-3.289c-.555-2.045-1.868-3.734-3.471-4.464-2.304-1.05-2.832-.881-4.951 1.583-2.15 2.499-2.334 3.48-1.966 10.464.435 8.235-1.548 16.37-5.594 22.956-2.446 3.982-4.241 4.234-3.553.5 2.391-12.979 3.798-25.018 3.259-27.892-1.058-5.64-3.162-5.359-9.251 1.235-2.999 3.249-5.353 6.076-5.231 6.282.122.206-2.343 3.244-5.479 6.75-4.053 4.531-6.408 6.375-8.14 6.375-1.341 0-2.438-.454-2.438-1.01 0-.555 2.025-4.754 4.5-9.332 4.661-8.621 5.346-11.412 3.3-13.458-2.109-2.109-5.939-1.305-13.465 2.826-4.034 2.214-7.335 3.762-7.335 3.44 0-.322 2.274-4.951 5.053-10.285 4.929-9.462 5.021-9.795 3.75-13.593-.717-2.141-2.119-4.387-3.116-4.99-2.355-1.427-4.542 1.172-9.823 11.674-2.15 4.275-4.799 8.663-5.886 9.75-1.088 1.088-1.722 1.978-1.41 1.978.952 0-3.738 6.146-9.764 12.797-3.276 3.615-5.478 6.888-5.172 7.686.832 2.168 3.04.732 6.847-4.454 1.923-2.62 4.188-5.337 5.032-6.038 1.306-1.084 1.429-.997.823.582-.392 1.021-2.877 5.78-5.523 10.576-5.001 9.065-5.851 12.515-3.323 13.485 2.388.916 9.704-4.05 13.691-9.295 5.106-6.716 10.465-11.725 11.226-10.492.591.955-.346 4.123-3.528 11.928-1.664 4.084-.505 6.286 4.12 7.824 2.809.935 3.582.822 5.154-.75 1.017-1.017 2.315-1.849 2.884-1.849s5.045-3.866 9.947-8.592c4.902-4.725 9.386-8.299 9.965-7.941 1.257.777 1.431 8.533.192 8.533-.474 0-.647 1.125-.384 2.5.291 1.52.017 2.5-.697 2.5-.647 0-.924.408-.615.908 1.557 2.518-1.264 5.309-7.491 7.413-3.549 1.198-8.63 3.459-11.293 5.024-7.97 4.685-9.479 12.106-3.286 16.164 5.626 3.686 15.873-1.873 29.514-16.011 5.878-6.093 8.8-8.448 9.939-8.011.887.34 1.309.314.936-.058-.372-.372.992-1.8 3.031-3.174 5.026-3.385 13.125-11.004 12.434-11.695-.308-.308-.035-.56.606-.56.642 0 1.167.21 1.167.466 0 1.055-3.416 7.534-3.972 7.534-.603 0-.9 1.354-1.309 5.973-.18 2.027.322 2.572 2.781 3.026 3.3.609 4.093.181 9.474-5.104 2.191-2.153 5.112-3.876 7.248-4.277 3.544-.665 6.311-2.751 5.167-3.896-.327-.327-1.703-.173-3.057.342-1.354.515-2.632.936-2.84.936-.905 0 .6-4.417 2.66-7.807 3.563-5.862 14.025-19.128 14.906-18.9.44.114 1.477-.693 2.304-1.793 1.177-1.566 1.769-1.738 2.728-.792.967.952.955 1.533-.055 2.75-.704.848-.993 1.542-.643 1.542s-2.957 7.088-7.351 15.75c-9.439 18.612-9.866 20.333-5.291 21.306 1.787.38 3.25.401 3.25.045 0-.355 1.617-1.517 3.593-2.581 2.764-1.489 4.491-3.721 7.481-9.667 2.138-4.253 4.612-8.137 5.496-8.632.885-.496 1.631-1.31 1.658-1.811.101-1.905 7.042-9.363 8.134-8.739.626.357.803.28.394-.171-.409-.451.192-1.476 1.335-2.276 4.086-2.862 3.974.203-.405 11.095-2.371 5.897-4.644 10.389-5.051 9.982-.408-.407-.494-.079-.193.729.302.809.175 2.82-.282 4.47-.667 2.407-.438 3.346 1.158 4.75 1.093.963 3.157 1.746 4.585 1.741 3.41-.013 11.71-4.873 16.043-9.395 4.45-4.644 6.054-4.628 6.054.059 0 2.943.754 4.372 3.876 7.342 3.741 3.559 5.712 4.098 9.326 2.553.936-.4 2.174-.436 2.75-.08.576.357 1.048.226 1.048-.29 0-.515 1.395-1.515 3.101-2.222 1.705-.706 5.737-3.798 8.96-6.871l5.86-5.587.38 3c.208 1.65.415.525.46-2.5.045-3.025-.146-4.937-.423-4.25-.278.688-1.051 1.25-1.718 1.25-.668 0-2.968 1.796-5.112 3.992-4.097 4.196-11.364 7.661-13.97 6.661-.846-.325-1.538-1.491-1.538-2.592 0-1.443 1.524-2.723 5.452-4.582 7.164-3.389 14.562-11.462 14.513-15.837-.129-11.383-13.784-9.51-25.85 3.546C217.65 132.512 206 140.81 206 136.941c0-.582.445-.784.989-.448.566.35.734-.051.393-.941-.347-.902-.063-1.552.678-1.552.7 0 .99-.283.644-.629-.346-.346 2.279-6.363 5.834-13.371 6.624-13.061 7.296-15.395 5.18-18-1.182-1.455-7.709-2.121-8.718-.89-.275.336-2.049 1.405-3.942 2.375-1.893.971-5.831 4.024-8.75 6.785-2.919 2.761-5.308 4.517-5.308 3.902 0-1.134 4.081-10.253 5-11.172 1.085-1.085 1.037-6.251-.071-7.586-1.763-2.123-7.954-1.693-12.112.841-2.026 1.235-6.413 4.873-9.75 8.086-3.337 3.212-6.067 5.56-6.067 5.218 0-.343.623-2.113 1.384-3.935 2.278-5.452 3.579-13.116 2.752-16.216-.427-1.6-1.797-3.42-3.045-4.045-1.588-.795-1.867-1.297-.93-1.671.736-.294-.686-.563-3.161-.598-2.855-.04-4.007.249-3.151.791M51.684 86.449c-2.099.748-4.739 2.191-5.867 3.206-3.611 3.25-7.732 9.999-9 14.74-.801 2.995-1.781 4.605-2.802 4.605-2.675 0-8.842-4.999-7.803-6.325.158-.202-.33-1.112-1.084-2.021-.755-.91-1.007-1.654-.559-1.654 1.318 0-2.95-2.933-4.319-2.968-2.268-.058-1.315 5.578 1.63 9.643 1.92 2.651 4.628 4.728 8.131 6.235l5.253 2.259-.535 9.166c-.294 5.041-1.078 10.644-1.742 12.451-1.47 4-7.184 7.214-12.825 7.214-3.725 0-6.897-1.932-5.487-3.342.362-.362.133-.658-.508-.658-.642 0-1.167-.675-1.167-1.5s.477-1.5 1.059-1.5.818-.39.524-.866c-.295-.477.354-1.672 1.441-2.655C20.199 128.7 17.194 122 11.325 122c-6.599 0-10.926 5.974-10.038 13.857 1.118 9.916 13.585 15.695 26.67 12.362 7.188-1.83 11.834-4.304 15.742-8.381 4.275-4.46 6.141-9.263 6.94-17.865.491-5.28 1.083-7.282 2.263-7.647C64.044 110.874 72 103.531 72 96.699c0-4.361-2.161-8.731-5.059-10.229-3.512-1.817-10.197-1.826-15.257-.021m3.83 4.719C51.897 94.013 50 98.76 50 104.968c0 4.563.211 5.032 2.268 5.032 3.134 0 9.399-4.455 11.221-7.979C65.588 97.962 65.385 93.385 63 91c-2.553-2.553-4.07-2.519-7.486.168m99.324 2.745c-3.336 2.624-10.179 15.674-9.527 18.167.276 1.058.094 1.671-.404 1.362-1.214-.75-1.161 7.759.068 10.993.537 1.411 1.406 2.565 1.933 2.565.968 0 2.655-3.867 2.29-5.25-.109-.412.279-.75.861-.75s.781-.45.441-1-.208-1 .292-1c1.402 0 11.343-22.054 11.006-24.415-.403-2.819-3.812-3.149-6.96-.672m86.796 26.751c-3.817 4.9-4.565 7.336-2.25 7.336 2.016 0 8.616-7.662 8.616-10.003 0-3.32-2.526-2.261-6.366 2.667m-102.604-2.26c-.016 1.047-2.293 6.335-5.06 11.75-2.766 5.415-4.568 9.846-4.003 9.846 1.546 0 9.033-7.045 9.033-8.5 0-.697.918-1.507 2.04-1.8 1.678-.439 1.917-1.036 1.345-3.367-.382-1.558-1.05-2.975-1.484-3.148-.434-.173-.551-.933-.261-1.689.29-.756.053-2.189-.526-3.185-1.003-1.725-1.055-1.721-1.084.093m-37.387 34.151C93.201 155.651 89 159.795 89 165.028c0 2.175 3.663 3.531 6.827 2.527 4.166-1.322 11.072-10.8 11.151-15.305.027-1.52-.43-1.494-5.335.305" fill="#1976D2" fill-rule="evenodd"/><path fill-opacity=".105" d="M52.684 86.395c-3.691 1.368-6.725 3.484-9.471 6.605-2.018 2.293-7.211 13.274-7.212 15.25-.002 4.511-8.819-1.203-11.869-7.693-2.208-4.697-3.762-5.685-4.777-3.039-1.55 4.039 6.486 13.629 12.533 14.957l3.112.684-.077 8.67c-.13 14.679-2.669 19.203-11.948 21.288-3.709.833-4.751.695-6.921-.918-3.504-2.606-3.708-5.633-.626-9.296 3.745-4.451 3.365-7.395-1.271-9.838C9.921 120.833 2 124.814 2 129.174 2 130.178 1.55 131 1 131c-1.646 0-.984 4.233 1.331 8.5 3.118 5.75 9.014 8.5 18.222 8.5 18.312 0 28.309-8.595 29.423-25.297l.524-7.85 5.021-1.695c6.273-2.118 12.856-7.325 15.016-11.878 2.022-4.26 1.299-9.197-1.89-12.904-2.778-3.23-10.134-4.143-15.963-1.981m105.8.452c-1.659 1.012-5.123 4.182-7.697 7.045-7.693 8.557-11.091 20.937-8.468 30.858.878 3.322 1.014 5.25.369 5.25-.56 0-3.888 2.756-7.396 6.124-3.507 3.368-6.589 5.913-6.847 5.655-.258-.259 1.96-5.377 4.93-11.374 2.97-5.998 5.687-12.546 6.038-14.551 1.274-7.273-3.891-12.446-7.718-7.731-1.64 2.02-1.838 3.37-1.318 8.988.672 7.267-.262 11.442-4.843 21.639-2.067 4.602-3.327 6.25-4.778 6.25-1.309 0-1.784-.486-1.414-1.449 1.477-3.849 3.696-17.29 3.884-23.527.359-11.92-2.779-11.939-12.126-.073-7.251 9.206-14.68 16.355-16.4 15.783-2.424-.807-1.772-3.996 2.155-10.536 5.045-8.404 5.833-11.367 3.612-13.588-2.004-2.004-3.519-1.667-12.95 2.885-3.841 1.854-7.189 3.166-7.439 2.916-.251-.251 1.663-4.608 4.253-9.683 2.591-5.076 4.701-10.405 4.689-11.843C89 93.257 85.628 88 83.962 88c-.49 0-3.211 4.303-6.046 9.561-5.936 11.01-14.278 23.056-20.213 29.185-3.174 3.277-3.84 4.517-2.924 5.433.653.653 1.336.993 1.518.754C63.297 123.76 68 118.35 68 119.471c0 .466-2.7 5.988-6 12.271s-6 12.013-6 12.734c0 4.336 7.533 1.141 13.168-5.585C78.016 128.33 80.266 126 81.616 126c1.865 0 1.758 1.197-.829 9.229-2.307 7.163-2.065 8.931 1.533 11.201 2.771 1.748 10.268-2.96 19.359-12.156 7.546-7.634 8.304-8.148 9.802-6.65 1.021 1.02 1.437 2.599 1.121 4.25-2.092 10.923-2.744 13.756-3.379 14.675-.397.576-2.748 1.64-5.223 2.362-11.621 3.394-20 9.49-20 14.554 0 5.077 2.423 7.535 7.428 7.535 5.85 0 16.797-7.185 25.828-16.951 3.716-4.018 8.549-8.193 10.739-9.277 2.191-1.083 6.751-4.637 10.135-7.897 3.383-3.26 6.379-5.699 6.657-5.422.277.278-.686 3.159-2.141 6.401-4.126 9.194-3.479 10.986 3.31 9.158 2.68-.722 5.025-2.351 7.098-4.929 2.338-2.91 4.065-4.006 7.067-4.486 2.432-.389 3.719-1.047 3.317-1.697-.361-.584-1.665-.809-2.899-.499-3.421.858-3.559-.107-.748-5.213 5.492-9.973 17.418-24.188 20.294-24.188 3.375 0 2.201 3.563-7.288 22.128-9.835 19.242-10.074 20.633-3.297 19.261 5.224-1.059 9.327-5.083 12.952-12.703 3.725-7.832 15.735-21.686 18.799-21.686 2.677 0 2.164 2.568-2.797 13.996-5.399 12.438-5.769 17.833-1.328 19.385 3.52 1.23 10.957-2.364 16.358-7.907 2.209-2.267 5.079-4.397 6.378-4.733 2.178-.565 2.315-.378 1.761 2.394-.694 3.472 1.419 8.282 4.322 9.835 3.156 1.689 9.851 1.174 14.345-1.104 4.926-2.498 13.336-9.3 14.739-11.921 1.943-3.63-.904-2.862-5.839 1.575-2.76 2.48-6.627 5.182-8.594 6.004-3.342 1.397-3.709 1.363-5.587-.515-2.931-2.931-2.551-3.72 2.932-6.079 6.64-2.857 16.059-12.652 16.059-16.701 0-3.145-2.108-5.568-5.836-6.706-4.134-1.261-14.281 4.623-20.898 12.119-7.488 8.483-18.927 17.097-20.549 15.475-.883-.883.573-4.643 6.06-15.649 3.973-7.967 7.223-15.552 7.223-16.854 0-4-2.426-5.182-7.722-3.766-5.757 1.54-9.661 4.151-14.959 10.004-2.3 2.541-4.428 4.372-4.731 4.069-.302-.302.818-3.806 2.491-7.786 1.823-4.341 2.916-8.517 2.731-10.436-.271-2.794-.718-3.238-3.53-3.51-4.976-.481-10.107 2.557-18.199 10.776-4.08 4.144-7.139 6.635-6.797 5.535.342-1.1 1.528-4.475 2.636-7.5 2.251-6.145 2.713-14.967.88-16.8-1.871-1.871-10.853-1.465-14.316.647M54.782 91.255C51.244 94.176 50 97.77 50 105.065c0 7.116 1.36 7.63 7.814 2.955C62.619 104.539 65 100.458 65 95.705c0-6.276-5.243-8.559-10.218-4.45m98.32 4.282c-1.708 1.945-4.329 5.883-5.825 8.75-2.302 4.414-2.723 6.47-2.748 13.41-.04 11.29 1.296 12.25 5.773 4.15 6.122-11.075 12.753-26.54 12.104-28.231-1.128-2.94-5.902-1.954-9.304 1.921m88.518 24.881c-6.053 7.388-3.932 10.571 2.809 4.214 2.337-2.204 3.571-4.278 3.571-6 0-3.887-2.246-3.258-6.38 1.786M99.294 153.106c-6.517 2.505-10.517 6.975-10.097 11.284.247 2.537.797 3.167 2.987 3.42 5.634.651 10.768-3.909 14.142-12.56 1.564-4.008 1.559-4.247-.084-4.198-.958.029-4.085.953-6.948 2.054" fill="#1976D2" fill-rule="evenodd"/></svg>